<?xml version="1.0" encoding="iso-8859-1"?>
<!-- Generator: Adobe Illustrator 19.0.0, SVG Export Plug-In . SVG Version: 6.00 Build 0)  -->
<svg version="1.1" id="Capa_1" xmlns="http://www.w3.org/2000/svg" xmlns:xlink="http://www.w3.org/1999/xlink" x="0px" y="0px"
	 viewBox="0 0 512 512" style="enable-background:new 0 0 512 512;" xml:space="preserve">
<g>
	<g>
		<path d="M256,0C195.952,0,139.465,23.426,96.944,65.963l21.217,21.209C155.016,50.304,203.968,30,256,30
			s100.984,20.304,137.839,57.172l21.217-21.209C372.535,23.426,316.048,0,256,0z"/>
	</g>
</g>
<g>
	<g>
		<path d="M256,120.857c-28.127,0-55.167,10.917-74.186,29.952l21.223,21.204c13.434-13.445,32.737-21.156,52.963-21.156
			s39.529,7.711,52.963,21.156l21.223-21.204C311.167,131.774,284.127,120.857,256,120.857z"/>
	</g>
</g>
<g>
	<g>
		<path d="M256,60c-44.006,0-85.423,17.181-116.621,48.379l21.213,21.213C186.124,104.061,220.007,90,256,90
			s69.876,14.061,95.408,39.592l21.213-21.213C341.423,77.181,300.006,60,256,60z"/>
	</g>
</g>
<g>
	<g>
		<path d="M407,211H105C47.103,211,0,258.103,0,316c0,57.897,47.103,105,105,105h70.261l-20.11,61H121v30c16.402,0,260.771,0,270,0
			v-30h-34.151l-20.11-61H407c57.897,0,105-47.103,105-105C512,258.103,464.897,211,407,211z M186.739,482l20.109-61h98.303
			l20.11,61H186.739z M407,391c-16.118,0-286.08,0-302,0c-41.355,0-75-33.645-75-75c0-41.355,33.645-75,75-75h302
			c41.355,0,75,33.645,75,75C482,357.355,448.355,391,407,391z"/>
	</g>
</g>
<g>
	<g>
		<path d="M105,271c-24.813,0-45,20.187-45,45s20.187,45,45,45s45-20.187,45-45S129.813,271,105,271z M105,331
			c-8.271,0-15-6.729-15-15s6.729-15,15-15s15,6.729,15,15S113.271,331,105,331z"/>
	</g>
</g>
<g>
	<g>
		<path d="M256,271c-24.813,0-45,20.187-45,45s20.187,45,45,45s45-20.187,45-45S280.813,271,256,271z M256,331
			c-8.271,0-15-6.729-15-15s6.729-15,15-15s15,6.729,15,15S264.271,331,256,331z"/>
	</g>
</g>
<g>
	<g>
		<path d="M407,271c-24.813,0-45,20.187-45,45s20.187,45,45,45s45-20.187,45-45S431.813,271,407,271z M407,331
			c-8.271,0-15-6.729-15-15s6.729-15,15-15s15,6.729,15,15S415.271,331,407,331z"/>
	</g>
</g>
<g>
</g>
<g>
</g>
<g>
</g>
<g>
</g>
<g>
</g>
<g>
</g>
<g>
</g>
<g>
</g>
<g>
</g>
<g>
</g>
<g>
</g>
<g>
</g>
<g>
</g>
<g>
</g>
<g>
</g>
</svg>
