<?xml version="1.0" encoding="iso-8859-1"?>
<!-- Generator: Adobe Illustrator 19.0.0, SVG Export Plug-In . SVG Version: 6.00 Build 0)  -->
<svg version="1.1" id="Capa_1" xmlns="http://www.w3.org/2000/svg" xmlns:xlink="http://www.w3.org/1999/xlink" x="0px" y="0px"
	 viewBox="0 0 504.798 504.798" style="enable-background:new 0 0 504.798 504.798;" xml:space="preserve">
<g transform="translate(-1)">
	<g>
		<g>
			<path d="M76.72,58.247c2.12-2.126,2.945-5.222,2.164-8.121c-0.781-2.899-3.05-5.161-5.951-5.934
				c-2.901-0.773-5.995,0.06-8.115,2.187c-85.091,85.277-85.091,223.341,0,308.618c1.578,1.588,3.729,2.474,5.968,2.459
				c3.394-0.001,6.454-2.046,7.753-5.182c1.299-3.136,0.581-6.745-1.819-9.146C-1.827,264.411-1.827,136.965,76.72,58.247z"/>
			<path d="M441.986,46.379c-3.278-3.277-8.591-3.277-11.868,0c-3.277,3.278-3.277,8.591,0,11.868
				c78.538,78.722,78.538,206.16,0,284.882c-2.182,2.107-3.057,5.228-2.289,8.163c0.768,2.935,3.06,5.226,5.995,5.994
				c2.935,0.768,6.055-0.107,8.163-2.289C527.068,269.716,527.068,131.66,441.986,46.379z"/>
			<path d="M100.457,81.984c3.181-3.293,3.135-8.528-0.102-11.766c-3.238-3.238-8.473-3.283-11.766-0.102
				c-71.999,72.161-71.999,188.984,0,261.145c2.107,2.182,5.228,3.057,8.163,2.289c2.935-0.768,5.226-3.06,5.995-5.995
				c0.768-2.935-0.107-6.055-2.289-8.163C35.007,253.789,35.007,147.587,100.457,81.984z"/>
			<path d="M418.241,70.115c-2.107-2.182-5.228-3.057-8.163-2.289s-5.226,3.06-5.995,5.995c-0.768,2.935,0.107,6.055,2.289,8.163
				c31.558,31.427,49.232,74.172,49.085,118.708c0.147,44.534-17.528,87.276-49.085,118.7c-2.182,2.107-3.057,5.228-2.289,8.163
				c0.768,2.935,3.06,5.226,5.995,5.995s6.055-0.107,8.163-2.289C490.24,259.1,490.24,142.276,418.241,70.115z"/>
			<path d="M383.173,406.802c-1.84-7.475-8.429-12.813-16.124-13.06h-89.038V349.5c77.444-13.09,131.941-83.336,125.372-161.603
				S331.374,49.449,252.832,49.449s-143.985,60.18-150.553,138.448c-6.568,78.267,47.929,148.513,125.372,161.603v44.242h-89.038
				c-7.692,0.246-14.281,5.58-16.124,13.052l-11.306,28.437l-0.311,0.948c-1.722,6.25-0.458,12.946,3.425,18.138
				c3.02,4.079,7.775,6.511,12.85,6.572h251.367c5.075-0.061,9.83-2.493,12.85-6.572c3.882-5.192,5.146-11.888,3.424-18.138
				L383.173,406.802z M118.536,200.692c0.083-74.135,60.161-134.212,134.295-134.295c74.169,0,134.295,60.126,134.295,134.295
				s-60.126,134.295-134.295,134.295S118.536,274.861,118.536,200.692z M261.225,351.346v42.395h-16.787v-42.395
				c2.795,0.151,5.556,0.428,8.393,0.428S258.43,351.497,261.225,351.346z M378.515,444.102l-250.746,0.159
				c-0.766-0.954-1.046-2.21-0.755-3.399l11.239-28.269l0.311-0.94c0.176-0.68,0.453-1.066,0.235-1.125h227.781
				c0.249,0.335,0.426,0.718,0.52,1.125l11.549,29.209C378.716,441.944,378.671,443.03,378.515,444.102z"/>
			<path d="M370.34,200.692c0-64.898-52.61-117.508-117.508-117.508s-117.508,52.61-117.508,117.508
				c0.074,64.867,52.641,117.434,117.508,117.508C317.73,318.2,370.34,265.59,370.34,200.692z M152.198,204.962
				c-2.252-53.946,38.435-100.072,92.24-104.571v7.974c0,4.636,3.758,8.393,8.393,8.393c4.636,0,8.393-3.758,8.393-8.393v-7.974
				c53.805,4.499,94.492,50.625,92.24,104.571s-46.641,96.521-100.634,96.521S154.45,258.908,152.198,204.962z"/>
			<path d="M319.979,200.692c0-37.085-30.063-67.148-67.148-67.148s-67.148,30.063-67.148,67.148
				c0.042,37.067,30.08,67.106,67.148,67.148C289.916,267.84,319.979,237.777,319.979,200.692z M202.471,200.692
				c0.028-27.802,22.559-50.333,50.361-50.361c27.813,0,50.361,22.547,50.361,50.361s-22.547,50.361-50.361,50.361
				S202.471,228.506,202.471,200.692z"/>
			<path d="M286.405,200.692c0-18.542-15.031-33.574-33.574-33.574s-33.574,15.031-33.574,33.574s15.031,33.574,33.574,33.574
				S286.405,219.235,286.405,200.692z M236.045,200.692c0-9.271,7.516-16.787,16.787-16.787c9.271,0,16.787,7.516,16.787,16.787
				c0,9.271-7.516,16.787-16.787,16.787C243.56,217.479,236.045,209.963,236.045,200.692z"/>
		</g>
	</g>
</g>
<g>
</g>
<g>
</g>
<g>
</g>
<g>
</g>
<g>
</g>
<g>
</g>
<g>
</g>
<g>
</g>
<g>
</g>
<g>
</g>
<g>
</g>
<g>
</g>
<g>
</g>
<g>
</g>
<g>
</g>
</svg>
